<svg id="visual" viewBox="0 0 900 600" width="900" height="600" xmlns="http://www.w3.org/2000/svg" xmlns:xlink="http://www.w3.org/1999/xlink" version="1.1"><rect x="0" y="0" width="900" height="600" fill="#ECCFC3"></rect><path d="M0 562L21.5 561.8C43 561.7 86 561.3 128.8 561C171.7 560.7 214.3 560.3 257.2 560.8C300 561.3 343 562.7 385.8 562.5C428.7 562.3 471.3 560.7 514.2 560.5C557 560.3 600 561.7 642.8 562.2C685.7 562.7 728.3 562.3 771.2 561.3C814 560.3 857 558.7 878.5 557.8L900 557L900 601L878.5 601C857 601 814 601 771.2 601C728.3 601 685.7 601 642.8 601C600 601 557 601 514.2 601C471.3 601 428.7 601 385.8 601C343 601 300 601 257.2 601C214.3 601 171.7 601 128.8 601C86 601 43 601 21.5 601L0 601Z" fill="#ffb563"></path><path d="M0 568L21.5 567.3C43 566.7 86 565.3 128.8 565C171.7 564.7 214.3 565.3 257.2 566.2C300 567 343 568 385.8 568.7C428.7 569.3 471.3 569.7 514.2 569.2C557 568.7 600 567.3 642.8 567C685.7 566.7 728.3 567.3 771.2 568C814 568.7 857 569.3 878.5 569.7L900 570L900 601L878.5 601C857 601 814 601 771.2 601C728.3 601 685.7 601 642.8 601C600 601 557 601 514.2 601C471.3 601 428.7 601 385.8 601C343 601 300 601 257.2 601C214.3 601 171.7 601 128.8 601C86 601 43 601 21.5 601L0 601Z" fill="#ef9850"></path><path d="M0 573L21.5 572.5C43 572 86 571 128.8 571.3C171.7 571.7 214.3 573.3 257.2 573.7C300 574 343 573 385.8 573C428.7 573 471.3 574 514.2 574.2C557 574.3 600 573.7 642.8 573C685.7 572.3 728.3 571.7 771.2 571.3C814 571 857 571 878.5 571L900 571L900 601L878.5 601C857 601 814 601 771.2 601C728.3 601 685.7 601 642.8 601C600 601 557 601 514.2 601C471.3 601 428.7 601 385.8 601C343 601 300 601 257.2 601C214.3 601 171.7 601 128.8 601C86 601 43 601 21.5 601L0 601Z" fill="#de7b41"></path><path d="M0 578L21.5 578.5C43 579 86 580 128.8 579.7C171.7 579.3 214.3 577.7 257.2 577.5C300 577.3 343 578.7 385.8 579C428.7 579.3 471.3 578.7 514.2 578.3C557 578 600 578 642.8 578.2C685.7 578.3 728.3 578.7 771.2 578.8C814 579 857 579 878.5 579L900 579L900 601L878.5 601C857 601 814 601 771.2 601C728.3 601 685.7 601 642.8 601C600 601 557 601 514.2 601C471.3 601 428.7 601 385.8 601C343 601 300 601 257.2 601C214.3 601 171.7 601 128.8 601C86 601 43 601 21.5 601L0 601Z" fill="#cc5d34"></path><path d="M0 585L21.5 585.2C43 585.3 86 585.7 128.8 585.7C171.7 585.7 214.3 585.3 257.2 585.3C300 585.3 343 585.7 385.8 585.3C428.7 585 471.3 584 514.2 583.5C557 583 600 583 642.8 583.3C685.7 583.7 728.3 584.3 771.2 584.2C814 584 857 583 878.5 582.5L900 582L900 601L878.5 601C857 601 814 601 771.2 601C728.3 601 685.7 601 642.8 601C600 601 557 601 514.2 601C471.3 601 428.7 601 385.8 601C343 601 300 601 257.2 601C214.3 601 171.7 601 128.8 601C86 601 43 601 21.5 601L0 601Z" fill="#b93e2a"></path><path d="M0 592L21.5 591.7C43 591.3 86 590.7 128.8 590.5C171.7 590.3 214.3 590.7 257.2 590.5C300 590.3 343 589.7 385.8 589.7C428.7 589.7 471.3 590.3 514.2 590.3C557 590.3 600 589.7 642.8 589.3C685.7 589 728.3 589 771.2 589.2C814 589.3 857 589.7 878.5 589.8L900 590L900 601L878.5 601C857 601 814 601 771.2 601C728.3 601 685.7 601 642.8 601C600 601 557 601 514.2 601C471.3 601 428.7 601 385.8 601C343 601 300 601 257.2 601C214.3 601 171.7 601 128.8 601C86 601 43 601 21.5 601L0 601Z" fill="#a41623"></path></svg>