<svg id="visual" viewBox="0 0 900 600" width="900" height="600" xmlns="http://www.w3.org/2000/svg" xmlns:xlink="http://www.w3.org/1999/xlink" version="1.1"><path d="M0 85L39 85L39 79L78 79L78 73L117 73L117 85L157 85L157 73L196 73L196 85L235 85L235 79L274 79L274 85L313 85L313 73L352 73L352 79L391 79L391 73L430 73L430 73L470 73L470 73L509 73L509 73L548 73L548 85L587 85L587 73L626 73L626 85L665 85L665 79L704 79L704 85L743 85L743 79L783 79L783 79L822 79L822 73L861 73L861 79L900 79L900 85L900 0L900 0L861 0L861 0L822 0L822 0L783 0L783 0L743 0L743 0L704 0L704 0L665 0L665 0L626 0L626 0L587 0L587 0L548 0L548 0L509 0L509 0L470 0L470 0L430 0L430 0L391 0L391 0L352 0L352 0L313 0L313 0L274 0L274 0L235 0L235 0L196 0L196 0L157 0L157 0L117 0L117 0L78 0L78 0L39 0L39 0L0 0Z" fill="#a41623"></path><path d="M0 127L39 127L39 127L78 127L78 115L117 115L117 127L157 127L157 121L196 121L196 127L235 127L235 127L274 127L274 127L313 127L313 115L352 115L352 121L391 121L391 115L430 115L430 115L470 115L470 121L509 121L509 115L548 115L548 127L587 127L587 115L626 115L626 133L665 133L665 127L704 127L704 133L743 133L743 121L783 121L783 127L822 127L822 115L861 115L861 121L900 121L900 127L900 83L900 77L861 77L861 71L822 71L822 77L783 77L783 77L743 77L743 83L704 83L704 77L665 77L665 83L626 83L626 71L587 71L587 83L548 83L548 71L509 71L509 71L470 71L470 71L430 71L430 71L391 71L391 77L352 77L352 71L313 71L313 83L274 83L274 77L235 77L235 83L196 83L196 71L157 71L157 83L117 83L117 71L78 71L78 77L39 77L39 83L0 83Z" fill="#a51e21"></path><path d="M0 157L39 157L39 157L78 157L78 145L117 145L117 157L157 157L157 151L196 151L196 157L235 157L235 157L274 157L274 157L313 157L313 145L352 145L352 151L391 151L391 145L430 145L430 145L470 145L470 151L509 151L509 145L548 145L548 157L587 157L587 145L626 145L626 163L665 163L665 157L704 157L704 163L743 163L743 151L783 151L783 157L822 157L822 145L861 145L861 151L900 151L900 157L900 125L900 119L861 119L861 113L822 113L822 125L783 125L783 119L743 119L743 131L704 131L704 125L665 125L665 131L626 131L626 113L587 113L587 125L548 125L548 113L509 113L509 119L470 119L470 113L430 113L430 113L391 113L391 119L352 119L352 113L313 113L313 125L274 125L274 125L235 125L235 125L196 125L196 119L157 119L157 125L117 125L117 113L78 113L78 125L39 125L39 125L0 125Z" fill="#a6241f"></path><path d="M0 205L39 205L39 211L78 211L78 199L117 199L117 205L157 205L157 205L196 205L196 205L235 205L235 205L274 205L274 205L313 205L313 193L352 193L352 199L391 199L391 193L430 193L430 193L470 193L470 199L509 199L509 193L548 193L548 211L587 211L587 193L626 193L626 211L665 211L665 211L704 211L704 211L743 211L743 205L783 205L783 205L822 205L822 193L861 193L861 205L900 205L900 205L900 155L900 149L861 149L861 143L822 143L822 155L783 155L783 149L743 149L743 161L704 161L704 155L665 155L665 161L626 161L626 143L587 143L587 155L548 155L548 143L509 143L509 149L470 149L470 143L430 143L430 143L391 143L391 149L352 149L352 143L313 143L313 155L274 155L274 155L235 155L235 155L196 155L196 149L157 149L157 155L117 155L117 143L78 143L78 155L39 155L39 155L0 155Z" fill="#a72a1c"></path><path d="M0 265L39 265L39 265L78 265L78 265L117 265L117 265L157 265L157 265L196 265L196 265L235 265L235 271L274 271L274 265L313 265L313 259L352 259L352 265L391 265L391 259L430 259L430 259L470 259L470 259L509 259L509 259L548 259L548 277L587 277L587 259L626 259L626 265L665 265L665 271L704 271L704 271L743 271L743 265L783 265L783 271L822 271L822 253L861 253L861 271L900 271L900 265L900 203L900 203L861 203L861 191L822 191L822 203L783 203L783 203L743 203L743 209L704 209L704 209L665 209L665 209L626 209L626 191L587 191L587 209L548 209L548 191L509 191L509 197L470 197L470 191L430 191L430 191L391 191L391 197L352 197L352 191L313 191L313 203L274 203L274 203L235 203L235 203L196 203L196 203L157 203L157 203L117 203L117 197L78 197L78 209L39 209L39 203L0 203Z" fill="#a8301a"></path><path d="M0 403L39 403L39 385L78 385L78 403L117 403L117 379L157 379L157 403L196 403L196 397L235 397L235 385L274 385L274 397L313 397L313 373L352 373L352 391L391 391L391 385L430 385L430 397L470 397L470 379L509 379L509 397L548 397L548 391L587 391L587 379L626 379L626 391L665 391L665 379L704 379L704 403L743 403L743 403L783 403L783 397L822 397L822 391L861 391L861 385L900 385L900 397L900 263L900 269L861 269L861 251L822 251L822 269L783 269L783 263L743 263L743 269L704 269L704 269L665 269L665 263L626 263L626 257L587 257L587 275L548 275L548 257L509 257L509 257L470 257L470 257L430 257L430 257L391 257L391 263L352 263L352 257L313 257L313 263L274 263L274 269L235 269L235 263L196 263L196 263L157 263L157 263L117 263L117 263L78 263L78 263L39 263L39 263L0 263Z" fill="#a93518"></path><path d="M0 439L39 439L39 427L78 427L78 439L117 439L117 421L157 421L157 439L196 439L196 439L235 439L235 421L274 421L274 433L313 433L313 415L352 415L352 427L391 427L391 427L430 427L430 439L470 439L470 415L509 415L509 439L548 439L548 427L587 427L587 415L626 415L626 433L665 433L665 421L704 421L704 445L743 445L743 439L783 439L783 433L822 433L822 433L861 433L861 421L900 421L900 439L900 395L900 383L861 383L861 389L822 389L822 395L783 395L783 401L743 401L743 401L704 401L704 377L665 377L665 389L626 389L626 377L587 377L587 389L548 389L548 395L509 395L509 377L470 377L470 395L430 395L430 383L391 383L391 389L352 389L352 371L313 371L313 395L274 395L274 383L235 383L235 395L196 395L196 401L157 401L157 377L117 377L117 401L78 401L78 383L39 383L39 401L0 401Z" fill="#a93a16"></path><path d="M0 475L39 475L39 463L78 463L78 475L117 475L117 457L157 457L157 475L196 475L196 475L235 475L235 457L274 457L274 469L313 469L313 451L352 451L352 463L391 463L391 463L430 463L430 475L470 475L470 451L509 451L509 475L548 475L548 463L587 463L587 451L626 451L626 469L665 469L665 457L704 457L704 481L743 481L743 475L783 475L783 469L822 469L822 469L861 469L861 457L900 457L900 475L900 437L900 419L861 419L861 431L822 431L822 431L783 431L783 437L743 437L743 443L704 443L704 419L665 419L665 431L626 431L626 413L587 413L587 425L548 425L548 437L509 437L509 413L470 413L470 437L430 437L430 425L391 425L391 425L352 425L352 413L313 413L313 431L274 431L274 419L235 419L235 437L196 437L196 437L157 437L157 419L117 419L117 437L78 437L78 425L39 425L39 437L0 437Z" fill="#aa3f13"></path><path d="M0 601L39 601L39 601L78 601L78 601L117 601L117 601L157 601L157 601L196 601L196 601L235 601L235 601L274 601L274 601L313 601L313 601L352 601L352 601L391 601L391 601L430 601L430 601L470 601L470 601L509 601L509 601L548 601L548 601L587 601L587 601L626 601L626 601L665 601L665 601L704 601L704 601L743 601L743 601L783 601L783 601L822 601L822 601L861 601L861 601L900 601L900 601L900 473L900 455L861 455L861 467L822 467L822 467L783 467L783 473L743 473L743 479L704 479L704 455L665 455L665 467L626 467L626 449L587 449L587 461L548 461L548 473L509 473L509 449L470 449L470 473L430 473L430 461L391 461L391 461L352 461L352 449L313 449L313 467L274 467L274 455L235 455L235 473L196 473L196 473L157 473L157 455L117 455L117 473L78 473L78 461L39 461L39 473L0 473Z" fill="#aa4411"></path></svg>