<svg id="visual" viewBox="0 0 900 100" width="900" height="100" xmlns="http://www.w3.org/2000/svg" xmlns:xlink="http://www.w3.org/1999/xlink" version="1.1"><path d="M0 10L39 10L39 10L78 10L78 11L117 11L117 10L157 10L157 9L196 9L196 10L235 10L235 10L274 10L274 9L313 9L313 10L352 10L352 9L391 9L391 9L430 9L430 10L470 10L470 10L509 10L509 11L548 11L548 10L587 10L587 10L626 10L626 9L665 9L665 9L704 9L704 10L743 10L743 9L783 9L783 10L822 10L822 10L861 10L861 9L900 9L900 9L900 0L900 0L861 0L861 0L822 0L822 0L783 0L783 0L743 0L743 0L704 0L704 0L665 0L665 0L626 0L626 0L587 0L587 0L548 0L548 0L509 0L509 0L470 0L470 0L430 0L430 0L391 0L391 0L352 0L352 0L313 0L313 0L274 0L274 0L235 0L235 0L196 0L196 0L157 0L157 0L117 0L117 0L78 0L78 0L39 0L39 0L0 0Z" fill="#a41623"></path><path d="M0 14L39 14L39 14L78 14L78 15L117 15L117 14L157 14L157 13L196 13L196 14L235 14L235 14L274 14L274 13L313 13L313 14L352 14L352 13L391 13L391 13L430 13L430 14L470 14L470 14L509 14L509 15L548 15L548 14L587 14L587 14L626 14L626 13L665 13L665 13L704 13L704 14L743 14L743 13L783 13L783 14L822 14L822 14L861 14L861 13L900 13L900 13L900 7L900 7L861 7L861 8L822 8L822 8L783 8L783 7L743 7L743 8L704 8L704 7L665 7L665 7L626 7L626 8L587 8L587 8L548 8L548 9L509 9L509 8L470 8L470 8L430 8L430 7L391 7L391 7L352 7L352 8L313 8L313 7L274 7L274 8L235 8L235 8L196 8L196 7L157 7L157 8L117 8L117 9L78 9L78 8L39 8L39 8L0 8Z" fill="#ac2725"></path><path d="M0 18L39 18L39 18L78 18L78 19L117 19L117 18L157 18L157 17L196 17L196 18L235 18L235 18L274 18L274 17L313 17L313 18L352 18L352 17L391 17L391 17L430 17L430 18L470 18L470 18L509 18L509 19L548 19L548 18L587 18L587 18L626 18L626 17L665 17L665 17L704 17L704 18L743 18L743 17L783 17L783 18L822 18L822 18L861 18L861 17L900 17L900 17L900 11L900 11L861 11L861 12L822 12L822 12L783 12L783 11L743 11L743 12L704 12L704 11L665 11L665 11L626 11L626 12L587 12L587 12L548 12L548 13L509 13L509 12L470 12L470 12L430 12L430 11L391 11L391 11L352 11L352 12L313 12L313 11L274 11L274 12L235 12L235 12L196 12L196 11L157 11L157 12L117 12L117 13L78 13L78 12L39 12L39 12L0 12Z" fill="#b43527"></path><path d="M0 24L39 24L39 23L78 23L78 24L117 24L117 24L157 24L157 22L196 22L196 23L235 23L235 23L274 23L274 23L313 23L313 23L352 23L352 22L391 22L391 22L430 22L430 23L470 23L470 23L509 23L509 24L548 24L548 24L587 24L587 24L626 24L626 22L665 22L665 22L704 22L704 24L743 24L743 23L783 23L783 24L822 24L822 24L861 24L861 23L900 23L900 22L900 15L900 15L861 15L861 16L822 16L822 16L783 16L783 15L743 15L743 16L704 16L704 15L665 15L665 15L626 15L626 16L587 16L587 16L548 16L548 17L509 17L509 16L470 16L470 16L430 16L430 15L391 15L391 15L352 15L352 16L313 16L313 15L274 15L274 16L235 16L235 16L196 16L196 15L157 15L157 16L117 16L117 17L78 17L78 16L39 16L39 16L0 16Z" fill="#bc422a"></path><path d="M0 29L39 29L39 28L78 28L78 29L117 29L117 29L157 29L157 27L196 27L196 28L235 28L235 28L274 28L274 28L313 28L313 28L352 28L352 27L391 27L391 27L430 27L430 28L470 28L470 28L509 28L509 29L548 29L548 29L587 29L587 29L626 29L626 27L665 27L665 27L704 27L704 29L743 29L743 28L783 28L783 29L822 29L822 29L861 29L861 28L900 28L900 27L900 20L900 21L861 21L861 22L822 22L822 22L783 22L783 21L743 21L743 22L704 22L704 20L665 20L665 20L626 20L626 22L587 22L587 22L548 22L548 22L509 22L509 21L470 21L470 21L430 21L430 20L391 20L391 20L352 20L352 21L313 21L313 21L274 21L274 21L235 21L235 21L196 21L196 20L157 20L157 22L117 22L117 22L78 22L78 21L39 21L39 22L0 22Z" fill="#c34e2d"></path><path d="M0 36L39 36L39 34L78 34L78 36L117 36L117 35L157 35L157 34L196 34L196 34L235 34L235 35L274 35L274 34L313 34L313 35L352 35L352 34L391 34L391 34L430 34L430 35L470 35L470 35L509 35L509 35L548 35L548 35L587 35L587 35L626 35L626 33L665 33L665 34L704 34L704 35L743 35L743 35L783 35L783 36L822 36L822 35L861 35L861 34L900 34L900 34L900 25L900 26L861 26L861 27L822 27L822 27L783 27L783 26L743 26L743 27L704 27L704 25L665 25L665 25L626 25L626 27L587 27L587 27L548 27L548 27L509 27L509 26L470 26L470 26L430 26L430 25L391 25L391 25L352 25L352 26L313 26L313 26L274 26L274 26L235 26L235 26L196 26L196 25L157 25L157 27L117 27L117 27L78 27L78 26L39 26L39 27L0 27Z" fill="#ca5930"></path><path d="M0 57L39 57L39 56L78 56L78 57L117 57L117 55L157 55L157 54L196 54L196 56L235 56L235 56L274 56L274 56L313 56L313 54L352 54L352 54L391 54L391 53L430 53L430 55L470 55L470 56L509 56L509 56L548 56L548 55L587 55L587 55L626 55L626 54L665 54L665 54L704 54L704 56L743 56L743 57L783 57L783 54L822 54L822 54L861 54L861 55L900 55L900 55L900 32L900 32L861 32L861 33L822 33L822 34L783 34L783 33L743 33L743 33L704 33L704 32L665 32L665 31L626 31L626 33L587 33L587 33L548 33L548 33L509 33L509 33L470 33L470 33L430 33L430 32L391 32L391 32L352 32L352 33L313 33L313 32L274 32L274 33L235 33L235 32L196 32L196 32L157 32L157 33L117 33L117 34L78 34L78 32L39 32L39 34L0 34Z" fill="#d26534"></path><path d="M0 61L39 61L39 60L78 60L78 61L117 61L117 59L157 59L157 58L196 58L196 60L235 60L235 60L274 60L274 60L313 60L313 58L352 58L352 58L391 58L391 57L430 57L430 59L470 59L470 60L509 60L509 60L548 60L548 59L587 59L587 59L626 59L626 58L665 58L665 58L704 58L704 60L743 60L743 61L783 61L783 58L822 58L822 58L861 58L861 59L900 59L900 59L900 53L900 53L861 53L861 52L822 52L822 52L783 52L783 55L743 55L743 54L704 54L704 52L665 52L665 52L626 52L626 53L587 53L587 53L548 53L548 54L509 54L509 54L470 54L470 53L430 53L430 51L391 51L391 52L352 52L352 52L313 52L313 54L274 54L274 54L235 54L235 54L196 54L196 52L157 52L157 53L117 53L117 55L78 55L78 54L39 54L39 55L0 55Z" fill="#d87038"></path><path d="M0 73L39 73L39 71L78 71L78 73L117 73L117 70L157 70L157 70L196 70L196 71L235 71L235 72L274 72L274 72L313 72L313 70L352 70L352 69L391 69L391 70L430 70L430 70L470 70L470 72L509 72L509 72L548 72L548 71L587 71L587 71L626 71L626 71L665 71L665 70L704 70L704 72L743 72L743 72L783 72L783 70L822 70L822 70L861 70L861 70L900 70L900 70L900 57L900 57L861 57L861 56L822 56L822 56L783 56L783 59L743 59L743 58L704 58L704 56L665 56L665 56L626 56L626 57L587 57L587 57L548 57L548 58L509 58L509 58L470 58L470 57L430 57L430 55L391 55L391 56L352 56L352 56L313 56L313 58L274 58L274 58L235 58L235 58L196 58L196 56L157 56L157 57L117 57L117 59L78 59L78 58L39 58L39 59L0 59Z" fill="#df7c3c"></path><path d="M0 77L39 77L39 75L78 75L78 77L117 77L117 75L157 75L157 75L196 75L196 75L235 75L235 77L274 77L274 77L313 77L313 74L352 74L352 74L391 74L391 75L430 75L430 75L470 75L470 76L509 76L509 76L548 76L548 76L587 76L587 75L626 75L626 76L665 76L665 75L704 75L704 77L743 77L743 76L783 76L783 74L822 74L822 74L861 74L861 74L900 74L900 75L900 68L900 68L861 68L861 68L822 68L822 68L783 68L783 70L743 70L743 70L704 70L704 68L665 68L665 69L626 69L626 69L587 69L587 69L548 69L548 70L509 70L509 70L470 70L470 68L430 68L430 68L391 68L391 67L352 67L352 68L313 68L313 70L274 70L274 70L235 70L235 69L196 69L196 68L157 68L157 68L117 68L117 71L78 71L78 69L39 69L39 71L0 71Z" fill="#e68741"></path><path d="M0 93L39 93L39 94L78 94L78 94L117 94L117 93L157 93L157 94L196 94L196 93L235 93L235 93L274 93L274 94L313 94L313 93L352 93L352 94L391 94L391 94L430 94L430 94L470 94L470 93L509 93L509 93L548 93L548 93L587 93L587 93L626 93L626 93L665 93L665 94L704 94L704 94L743 94L743 93L783 93L783 93L822 93L822 93L861 93L861 93L900 93L900 93L900 73L900 72L861 72L861 72L822 72L822 72L783 72L783 74L743 74L743 75L704 75L704 73L665 73L665 74L626 74L626 73L587 73L587 74L548 74L548 74L509 74L509 74L470 74L470 73L430 73L430 73L391 73L391 72L352 72L352 72L313 72L313 75L274 75L274 75L235 75L235 73L196 73L196 73L157 73L157 73L117 73L117 75L78 75L78 73L39 73L39 75L0 75Z" fill="#ec9346"></path><path d="M0 101L39 101L39 101L78 101L78 101L117 101L117 101L157 101L157 101L196 101L196 101L235 101L235 101L274 101L274 101L313 101L313 101L352 101L352 101L391 101L391 101L430 101L430 101L470 101L470 101L509 101L509 101L548 101L548 101L587 101L587 101L626 101L626 101L665 101L665 101L704 101L704 101L743 101L743 101L783 101L783 101L822 101L822 101L861 101L861 101L900 101L900 101L900 91L900 91L861 91L861 91L822 91L822 91L783 91L783 91L743 91L743 92L704 92L704 92L665 92L665 91L626 91L626 91L587 91L587 91L548 91L548 91L509 91L509 91L470 91L470 92L430 92L430 92L391 92L391 92L352 92L352 91L313 91L313 92L274 92L274 91L235 91L235 91L196 91L196 92L157 92L157 91L117 91L117 92L78 92L78 92L39 92L39 91L0 91Z" fill="#f29e4c"></path></svg>